
<svg version="1.1" xmlns="http://www.w3.org/2000/svg" width="24" height="24">

<path d="M0 0 C2.64 0 5.28 0 8 0 C8 3.3 8 6.6 8 10 C5.36 10 2.72 10 0 10 C0 6.7 0 3.4 0 0 Z " fill="#000000" transform="translate(13,11)" data-index="1" style="visibility: visible; opacity: 1;"></path>
<path d="M0 0 C2.64 0 5.28 0 8 0 C8 3.3 8 6.6 8 10 C5.36 10 2.72 10 0 10 C0 6.7 0 3.4 0 0 Z " fill="#000000" transform="translate(3,3)" data-index="2" style="visibility: visible; opacity: 1;"></path>
<path d="M0 0 C2.64 0 5.28 0 8 0 C8 1.98 8 3.96 8 6 C5.36 6 2.72 6 0 6 C0 4.02 0 2.04 0 0 Z " fill="#2B2B2B" transform="translate(3,15)" data-index="3" style="visibility: visible; opacity: 1;"></path>
<path d="M0 0 C2.64 0 5.28 0 8 0 C8 1.98 8 3.96 8 6 C5.36 6 2.72 6 0 6 C0 4.02 0 2.04 0 0 Z " fill="#2B2B2B" transform="translate(13,3)" data-index="4" style="visibility: visible; opacity: 1;"></path>
<path d="M0 0 C1.32 0 2.64 0 4 0 C4 1.98 4 3.96 4 6 C2.68 6 1.36 6 0 6 C0 4.02 0 2.04 0 0 Z " fill="#FEFEFE" transform="translate(15,13)" data-index="5" style="visibility: visible; opacity: 1;"></path>
<path d="M0 0 C1.32 0 2.64 0 4 0 C4 1.98 4 3.96 4 6 C2.68 6 1.36 6 0 6 C0 4.02 0 2.04 0 0 Z " fill="#FEFEFE" transform="translate(5,5)" data-index="6" style="visibility: visible; opacity: 1;"></path>
</svg>

