<svg width="27" height="27" viewBox="0 0 27 27" fill="none" xmlns="http://www.w3.org/2000/svg">
<path fill-rule="evenodd" clip-rule="evenodd" d="M2.25 6.75C2.25 6.12868 2.75368 5.625 3.375 5.625H23.625C24.2463 5.625 24.75 6.12868 24.75 6.75C24.75 7.37132 24.2463 7.875 23.625 7.875H3.375C2.75368 7.875 2.25 7.37132 2.25 6.75Z" fill="black"/>
<path fill-rule="evenodd" clip-rule="evenodd" d="M11.25 3.375C10.9516 3.375 10.6655 3.49353 10.4545 3.7045C10.2435 3.91548 10.125 4.20163 10.125 4.5V6.75C10.125 7.37132 9.62132 7.875 9 7.875C8.37868 7.875 7.875 7.37132 7.875 6.75V4.5C7.875 3.60489 8.23058 2.74645 8.86351 2.11351C9.49645 1.48058 10.3549 1.125 11.25 1.125H15.75C16.6451 1.125 17.5035 1.48058 18.1365 2.11351C18.7694 2.74645 19.125 3.60489 19.125 4.5V6.75C19.125 7.37132 18.6213 7.875 18 7.875C17.3787 7.875 16.875 7.37132 16.875 6.75V4.5C16.875 4.20163 16.7565 3.91548 16.5455 3.7045C16.3345 3.49353 16.0484 3.375 15.75 3.375H11.25ZM5.625 5.625C6.24632 5.625 6.75 6.12868 6.75 6.75V22.5C6.75 22.7984 6.86853 23.0845 7.0795 23.2955C7.29048 23.5065 7.57663 23.625 7.875 23.625H19.125C19.4234 23.625 19.7095 23.5065 19.9205 23.2955C20.1315 23.0845 20.25 22.7984 20.25 22.5V6.75C20.25 6.12868 20.7537 5.625 21.375 5.625C21.9963 5.625 22.5 6.12868 22.5 6.75V22.5C22.5 23.3951 22.1444 24.2536 21.5115 24.8865C20.8785 25.5194 20.0201 25.875 19.125 25.875H7.875C6.97989 25.875 6.12145 25.5194 5.48851 24.8865C4.85558 24.2535 4.5 23.3951 4.5 22.5V6.75C4.5 6.12868 5.00368 5.625 5.625 5.625Z" fill="black"/>
</svg>
