<svg width="25" height="21" viewBox="0 0 25 21" fill="none" xmlns="http://www.w3.org/2000/svg">
<path d="M8.44674 3.75C6.16721 3.25028 1.25 3.85828 1.25 9.25541V19.5H4.55138V16.0019H13.9839V19.5H17.2852V13.2534C17.6783 12.9202 18.3542 15.5755 19.6434 16.2517C20.4043 16.6509 21.0583 16.9107 21.7657 16.7515C23.2971 16.4068 24.0295 15.4022 23.6522 13.0035C22.9448 13.8364 20.8225 14.7429 20.5867 13.0035C20.5867 10.9949 20.5867 5.75739 20.5867 5.75739C20.3508 4.25822 18.9831 1.30978 15.3988 1.50967H11.5349C9.88421 1.5 7.43176 3.75833 7.99769 6.75668C8.17336 7.6875 8.84375 9.54628 11.2082 9.75508C12.1515 9.83839 13.7113 9.45527 14.6545 7.2564" stroke="black" stroke-width="2" stroke-linecap="round" stroke-linejoin="round"/>
<path d="M17.5625 8.8125C18.1838 8.8125 18.6875 8.30882 18.6875 7.6875C18.6875 7.06618 18.1838 6.5625 17.5625 6.5625C16.9412 6.5625 16.4375 7.06618 16.4375 7.6875C16.4375 8.30882 16.9412 8.8125 17.5625 8.8125Z" fill="black"/>
</svg>
