<svg width="23" height="19" viewBox="0 0 23 19" fill="none" xmlns="http://www.w3.org/2000/svg">
<path d="M14.875 14H18.25C18.8687 14 19.375 13.4937 19.375 12.875V6.125C19.375 5.50625 18.8687 5 18.25 5H14.875C14.2563 5 13.75 5.50625 13.75 6.125V12.875C13.75 13.4937 14.2563 14 14.875 14ZM16 7.25H17.125V11.75H16V7.25ZM8.125 14H11.5C12.1187 14 12.625 13.4937 12.625 12.875V6.125C12.625 5.50625 12.1187 5 11.5 5H8.125C7.50625 5 7 5.50625 7 6.125V12.875C7 13.4937 7.50625 14 8.125 14ZM9.25 7.25H10.375V11.75H9.25V7.25ZM3.625 5H5.875V14H3.625V5ZM0.25 0.5V18.5H22.75V0.5H0.25ZM20.5 16.25H2.5V2.75H20.5V16.25Z" fill="black"/>
</svg>
