<svg width="533" height="39" viewBox="0 0 533 39" fill="none" xmlns="http://www.w3.org/2000/svg">
<path d="M13.192 29L7.684 19.388H6.28V29H0.124V3.548H10.636C12.652 3.548 14.356 3.896 15.748 4.592C17.14 5.288 18.184 6.248 18.88 7.472C19.576 8.672 19.924 10.052 19.924 11.612C19.924 13.46 19.408 15.032 18.376 16.328C17.368 17.624 15.892 18.512 13.948 18.992L19.996 29H13.192ZM6.28 15.176H10.096C11.32 15.176 12.22 14.912 12.796 14.384C13.372 13.832 13.66 13.028 13.66 11.972C13.66 10.964 13.36 10.172 12.76 9.596C12.184 9.02 11.296 8.732 10.096 8.732H6.28V15.176ZM43.4907 8.912V29H37.2987V25.364C36.7227 26.54 35.8587 27.476 34.7067 28.172C33.5787 28.868 32.2587 29.216 30.7467 29.216C28.4427 29.216 26.6067 28.448 25.2387 26.912C23.8947 25.376 23.2227 23.264 23.2227 20.576V8.912H29.3427V19.82C29.3427 21.188 29.6907 22.256 30.3867 23.024C31.1067 23.768 32.0667 24.14 33.2667 24.14C34.5147 24.14 35.4987 23.744 36.2187 22.952C36.9387 22.16 37.2987 21.032 37.2987 19.568V8.912H43.4907ZM74.2614 8.696C76.7334 8.696 78.6774 9.464 80.0934 11C81.5094 12.512 82.2174 14.624 82.2174 17.336V29H76.0974V18.056C76.0974 16.784 75.7494 15.8 75.0534 15.104C74.3814 14.384 73.4574 14.024 72.2814 14.024C71.0574 14.024 70.0854 14.408 69.3654 15.176C68.6694 15.92 68.3214 16.976 68.3214 18.344V29H62.1654V18.056C62.1654 16.784 61.8294 15.8 61.1574 15.104C60.4854 14.384 59.5614 14.024 58.3854 14.024C57.1614 14.024 56.1894 14.396 55.4694 15.14C54.7494 15.884 54.3894 16.952 54.3894 18.344V29H48.2334V8.912H54.3894V12.332C54.9174 11.204 55.7214 10.316 56.8014 9.668C57.9054 9.02 59.1894 8.696 60.6534 8.696C62.1894 8.696 63.5454 9.056 64.7214 9.776C65.8974 10.472 66.7854 11.48 67.3854 12.8C68.0814 11.552 69.0294 10.556 70.2294 9.812C71.4534 9.068 72.7974 8.696 74.2614 8.696ZM94.4396 8.66C95.9756 8.66 97.2956 9.008 98.3996 9.704C99.5036 10.4 100.32 11.348 100.848 12.548V8.912H106.968V29H100.848V25.364C100.32 26.564 99.5036 27.512 98.3996 28.208C97.2956 28.904 95.9756 29.252 94.4396 29.252C92.7836 29.252 91.2956 28.844 89.9756 28.028C88.6796 27.188 87.6476 25.988 86.8796 24.428C86.1356 22.868 85.7636 21.044 85.7636 18.956C85.7636 16.844 86.1356 15.02 86.8796 13.484C87.6476 11.924 88.6796 10.736 89.9756 9.92C91.2956 9.08 92.7836 8.66 94.4396 8.66ZM96.4196 14.06C95.0996 14.06 94.0316 14.492 93.2156 15.356C92.4236 16.22 92.0276 17.42 92.0276 18.956C92.0276 20.492 92.4236 21.692 93.2156 22.556C94.0316 23.42 95.0996 23.852 96.4196 23.852C97.7156 23.852 98.7716 23.408 99.5876 22.52C100.428 21.632 100.848 20.444 100.848 18.956C100.848 17.444 100.428 16.256 99.5876 15.392C98.7716 14.504 97.7156 14.06 96.4196 14.06ZM124.45 8.696C126.754 8.696 128.578 9.464 129.922 11C131.29 12.536 131.974 14.648 131.974 17.336V29H125.818V18.056C125.818 16.712 125.458 15.668 124.738 14.924C124.042 14.156 123.106 13.772 121.93 13.772C120.682 13.772 119.686 14.168 118.942 14.96C118.222 15.752 117.862 16.88 117.862 18.344V29H111.706V2.36H117.862V12.584C118.438 11.384 119.29 10.436 120.418 9.74C121.57 9.044 122.914 8.696 124.45 8.696ZM150.397 3.548V29H144.241V3.548H150.397ZM167.891 8.696C170.195 8.696 172.019 9.464 173.363 11C174.731 12.536 175.415 14.648 175.415 17.336V29H169.259V18.056C169.259 16.712 168.899 15.668 168.179 14.924C167.483 14.156 166.547 13.772 165.371 13.772C164.123 13.772 163.127 14.168 162.383 14.96C161.663 15.752 161.303 16.88 161.303 18.344V29H155.147V8.912H161.303V12.584C161.879 11.384 162.731 10.436 163.859 9.74C165.011 9.044 166.355 8.696 167.891 8.696ZM187.284 8.66C189.828 8.66 191.856 9.296 193.368 10.568C194.904 11.84 195.864 13.52 196.248 15.608H190.488C190.32 14.792 189.936 14.156 189.336 13.7C188.76 13.22 188.028 12.98 187.14 12.98C186.444 12.98 185.916 13.136 185.556 13.448C185.196 13.736 185.016 14.156 185.016 14.708C185.016 15.332 185.34 15.8 185.988 16.112C186.66 16.424 187.704 16.736 189.12 17.048C190.656 17.408 191.916 17.78 192.9 18.164C193.884 18.524 194.736 19.124 195.456 19.964C196.176 20.804 196.536 21.932 196.536 23.348C196.536 24.5 196.224 25.52 195.6 26.408C194.976 27.296 194.076 27.992 192.9 28.496C191.724 29 190.332 29.252 188.724 29.252C186.012 29.252 183.84 28.652 182.208 27.452C180.576 26.252 179.58 24.536 179.22 22.304H185.16C185.256 23.168 185.616 23.828 186.24 24.284C186.888 24.74 187.716 24.968 188.724 24.968C189.42 24.968 189.948 24.812 190.308 24.5C190.668 24.164 190.848 23.732 190.848 23.204C190.848 22.508 190.512 22.016 189.84 21.728C189.192 21.416 188.124 21.092 186.636 20.756C185.148 20.444 183.924 20.108 182.964 19.748C182.004 19.388 181.176 18.812 180.48 18.02C179.784 17.204 179.436 16.1 179.436 14.708C179.436 12.908 180.12 11.456 181.488 10.352C182.856 9.224 184.788 8.66 187.284 8.66ZM212.972 8.66C214.628 8.66 216.104 9.08 217.4 9.92C218.72 10.736 219.752 11.924 220.496 13.484C221.264 15.02 221.648 16.844 221.648 18.956C221.648 21.044 221.264 22.868 220.496 24.428C219.752 25.988 218.72 27.188 217.4 28.028C216.104 28.844 214.628 29.252 212.972 29.252C211.436 29.252 210.116 28.904 209.012 28.208C207.908 27.512 207.104 26.564 206.6 25.364V38.576H200.444V8.912H206.6V12.548C207.104 11.348 207.908 10.4 209.012 9.704C210.116 9.008 211.436 8.66 212.972 8.66ZM210.992 14.06C209.696 14.06 208.628 14.504 207.788 15.392C206.972 16.256 206.564 17.444 206.564 18.956C206.564 20.444 206.972 21.632 207.788 22.52C208.628 23.408 209.696 23.852 210.992 23.852C212.312 23.852 213.368 23.42 214.16 22.556C214.976 21.692 215.384 20.492 215.384 18.956C215.384 17.42 214.976 16.22 214.16 15.356C213.368 14.492 212.312 14.06 210.992 14.06ZM224.767 3.26C224.767 2.324 225.103 1.556 225.775 0.955998C226.447 0.331998 227.335 0.0199976 228.439 0.0199976C229.543 0.0199976 230.431 0.331998 231.103 0.955998C231.775 1.556 232.111 2.324 232.111 3.26C232.111 4.172 231.775 4.94 231.103 5.564C230.431 6.164 229.543 6.464 228.439 6.464C227.335 6.464 226.447 6.164 225.775 5.564C225.103 4.94 224.767 4.172 224.767 3.26ZM231.499 8.912V29H225.343V8.912H231.499ZM242.405 12.692C243.173 11.468 244.157 10.496 245.357 9.776C246.581 9.056 247.901 8.696 249.317 8.696V15.284H247.553C245.921 15.284 244.649 15.632 243.737 16.328C242.849 17.024 242.405 18.2 242.405 19.856V29H236.249V8.912H242.405V12.692ZM260.026 8.66C261.562 8.66 262.882 9.008 263.986 9.704C265.09 10.4 265.906 11.348 266.434 12.548V8.912H272.554V29H266.434V25.364C265.906 26.564 265.09 27.512 263.986 28.208C262.882 28.904 261.562 29.252 260.026 29.252C258.37 29.252 256.882 28.844 255.562 28.028C254.266 27.188 253.234 25.988 252.466 24.428C251.722 22.868 251.35 21.044 251.35 18.956C251.35 16.844 251.722 15.02 252.466 13.484C253.234 11.924 254.266 10.736 255.562 9.92C256.882 9.08 258.37 8.66 260.026 8.66ZM262.006 14.06C260.686 14.06 259.618 14.492 258.802 15.356C258.01 16.22 257.614 17.42 257.614 18.956C257.614 20.492 258.01 21.692 258.802 22.556C259.618 23.42 260.686 23.852 262.006 23.852C263.302 23.852 264.358 23.408 265.174 22.52C266.014 21.632 266.434 20.444 266.434 18.956C266.434 17.444 266.014 16.256 265.174 15.392C264.358 14.504 263.302 14.06 262.006 14.06ZM284.6 8.66C287.144 8.66 289.172 9.296 290.684 10.568C292.22 11.84 293.18 13.52 293.564 15.608H287.804C287.636 14.792 287.252 14.156 286.652 13.7C286.076 13.22 285.344 12.98 284.456 12.98C283.76 12.98 283.232 13.136 282.872 13.448C282.512 13.736 282.332 14.156 282.332 14.708C282.332 15.332 282.656 15.8 283.304 16.112C283.976 16.424 285.02 16.736 286.436 17.048C287.972 17.408 289.232 17.78 290.216 18.164C291.2 18.524 292.052 19.124 292.772 19.964C293.492 20.804 293.852 21.932 293.852 23.348C293.852 24.5 293.54 25.52 292.916 26.408C292.292 27.296 291.392 27.992 290.216 28.496C289.04 29 287.648 29.252 286.04 29.252C283.328 29.252 281.156 28.652 279.524 27.452C277.892 26.252 276.896 24.536 276.536 22.304H282.476C282.572 23.168 282.932 23.828 283.556 24.284C284.204 24.74 285.032 24.968 286.04 24.968C286.736 24.968 287.264 24.812 287.624 24.5C287.984 24.164 288.164 23.732 288.164 23.204C288.164 22.508 287.828 22.016 287.156 21.728C286.508 21.416 285.44 21.092 283.952 20.756C282.464 20.444 281.24 20.108 280.28 19.748C279.32 19.388 278.492 18.812 277.796 18.02C277.1 17.204 276.752 16.1 276.752 14.708C276.752 12.908 277.436 11.456 278.804 10.352C280.172 9.224 282.104 8.66 284.6 8.66ZM297.185 3.26C297.185 2.324 297.521 1.556 298.193 0.955998C298.865 0.331998 299.753 0.0199976 300.857 0.0199976C301.961 0.0199976 302.849 0.331998 303.521 0.955998C304.193 1.556 304.529 2.324 304.529 3.26C304.529 4.172 304.193 4.94 303.521 5.564C302.849 6.164 301.961 6.464 300.857 6.464C299.753 6.464 298.865 6.164 298.193 5.564C297.521 4.94 297.185 4.172 297.185 3.26ZM303.917 8.912V29H297.761V8.912H303.917ZM324.89 31.6C324.41 31.4667 324.023 31.3467 323.73 31.24C323.437 31.16 323.29 31.12 323.29 31.12C323.343 30.9867 323.317 30.8667 323.21 30.76C323.13 30.6533 322.943 30.5867 322.65 30.56C322.25 30.2933 321.837 29.92 321.41 29.44C320.983 28.96 320.61 28.4667 320.29 27.96C319.97 27.4533 319.757 27.08 319.65 26.84C319.463 26.44 319.477 26.2 319.69 26.12C319.903 26.0133 320.157 25.8933 320.45 25.76C320.743 25.5467 321.05 25.3867 321.37 25.28C321.717 25.1733 321.997 25.3467 322.21 25.8C322.557 26.4133 323.09 26.9333 323.81 27.36C324.557 27.7867 325.397 28.04 326.33 28.12C327.29 28.2 328.25 28.04 329.21 27.64C329.85 27.3467 330.197 26.9467 330.25 26.44C330.303 25.9067 330.103 25.2933 329.65 24.6C329.57 24.3867 329.45 24.2133 329.29 24.08C329.157 23.9467 328.943 23.7733 328.65 23.56C328.383 23.3467 327.997 23 327.49 22.52C327.09 22.3333 326.717 22.16 326.37 22C326.05 21.84 325.703 21.6667 325.33 21.48C324.903 21.2667 324.423 20.9733 323.89 20.6C323.357 20.2 322.863 19.7733 322.41 19.32C321.957 18.84 321.61 18.3867 321.37 17.96C320.943 17.56 320.677 17.0133 320.57 16.32C320.463 15.6 320.477 14.84 320.61 14.04C320.77 13.24 321.023 12.52 321.37 11.88C321.53 11.5067 321.823 11.0267 322.25 10.44C322.677 9.82667 323.157 9.2 323.69 8.56C324.223 7.92 324.73 7.34667 325.21 6.84C325.717 6.30667 326.117 5.94667 326.41 5.76C326.623 5.54667 326.85 5.33333 327.09 5.12C327.33 4.88 327.45 4.76 327.45 4.76C327.477 4.62667 327.517 4.56 327.57 4.56C327.65 4.56 327.69 4.56 327.69 4.56C327.823 4.48 328.117 4.34667 328.57 4.16C329.023 3.97333 329.517 3.62667 330.05 3.12C331.837 2.26667 333.357 1.69333 334.61 1.4C335.863 1.08 336.85 0.919999 337.57 0.919999C338.237 0.946665 338.89 1.13333 339.53 1.48C340.17 1.8 340.717 2.21333 341.17 2.72C341.65 3.22667 341.93 3.8 342.01 4.44C342.197 5.08 342.103 5.85333 341.73 6.76C341.383 7.64 340.89 8.48 340.25 9.28C339.637 10.0533 338.997 10.6267 338.33 11C337.583 11.32 336.943 11.36 336.41 11.12C335.903 10.88 335.663 10.5067 335.69 10C335.69 9.78667 335.757 9.53333 335.89 9.24C336.05 8.94667 336.463 8.42667 337.13 7.68C337.983 6.42666 338.437 5.53333 338.49 5C338.543 4.46667 338.303 4.16 337.77 4.08C337.61 4.02667 337.303 4.04 336.85 4.12C336.397 4.2 335.903 4.30667 335.37 4.44C334.863 4.54667 334.41 4.66667 334.01 4.8C333.637 4.93333 333.45 5.02667 333.45 5.08C333.45 5.08 333.45 5.12 333.45 5.2C333.45 5.28 333.397 5.30667 333.29 5.28C333.237 5.28 333.05 5.37333 332.73 5.56C332.437 5.72 332.077 5.93333 331.65 6.2C331.223 6.46667 330.797 6.74667 330.37 7.04C329.97 7.30667 329.623 7.54667 329.33 7.76C329.037 7.97333 328.877 8.10667 328.85 8.16C328.797 8.45333 328.49 8.72 327.93 8.96C327.397 9.28 326.93 9.73333 326.53 10.32C326.13 10.9067 325.663 11.6533 325.13 12.56C324.677 13.1733 324.357 13.84 324.17 14.56C323.983 15.2533 323.983 15.8133 324.17 16.24C324.303 16.6667 324.663 17.0933 325.25 17.52C325.863 17.92 326.69 18.4267 327.73 19.04C328.637 19.5467 329.49 20.08 330.29 20.64C331.09 21.2 331.77 21.7467 332.33 22.28C332.89 22.7867 333.25 23.2133 333.41 23.56C333.73 24.0133 333.917 24.5333 333.97 25.12C334.05 25.7067 334.05 26.28 333.97 26.84C333.917 27.3733 333.837 27.8133 333.73 28.16C333.543 28.5867 333.25 29.04 332.85 29.52C332.477 30 332.13 30.2267 331.81 30.2C331.517 30.28 331.29 30.3733 331.13 30.48C330.997 30.5867 330.837 30.68 330.65 30.76C330.463 30.8667 330.023 30.9867 329.33 31.12C328.637 31.28 327.877 31.4 327.05 31.48C326.223 31.5867 325.503 31.6267 324.89 31.6ZM339.124 28.16C339.017 27.9467 338.777 27.7333 338.404 27.52C338.057 27.3067 337.884 27.1467 337.884 27.04C337.884 26.9333 337.817 26.7733 337.684 26.56C337.577 26.32 337.471 26.1467 337.364 26.04C337.231 25.88 337.271 25.4933 337.484 24.88C337.697 24.24 338.017 23.4667 338.444 22.56C338.871 21.6533 339.337 20.7333 339.844 19.8C340.057 19.5867 340.271 19.3067 340.484 18.96C340.697 18.6133 340.857 18.3867 340.964 18.28C340.964 18.1733 341.004 18.08 341.084 18C341.164 17.8933 341.257 17.84 341.364 17.84L341.684 17.2C341.737 17.0933 341.897 16.88 342.164 16.56C342.457 16.24 342.804 15.8933 343.204 15.52C343.604 15.12 344.004 14.7467 344.404 14.4C344.831 14.0533 345.177 13.8 345.444 13.64C346.004 13.2667 346.577 13.0933 347.164 13.12C347.777 13.1467 348.297 13.3333 348.724 13.68C348.804 13.76 348.977 13.92 349.244 14.16C349.537 14.4 349.857 14.6667 350.204 14.96C350.577 15.2533 350.897 15.52 351.164 15.76L352.644 17.08L351.964 19.08C351.617 20.1467 351.524 21.08 351.684 21.88C351.844 22.68 352.097 23.3733 352.444 23.96C352.577 24.2533 352.751 24.48 352.964 24.64C353.204 24.8 353.511 24.9067 353.884 24.96C354.097 24.9867 354.297 25.0667 354.484 25.2C354.671 25.3333 354.764 25.5467 354.764 25.84C354.764 26.48 354.644 26.9467 354.404 27.24C354.191 27.5067 353.951 27.6667 353.684 27.72C352.804 27.8267 351.964 27.7333 351.164 27.44C350.364 27.1467 349.644 26.3867 349.004 25.16C348.897 25 348.751 24.7067 348.564 24.28C348.404 23.8267 348.311 23.5333 348.284 23.4C348.177 23.5333 348.031 23.7067 347.844 23.92C347.684 24.1067 347.524 24.28 347.364 24.44C345.471 26.36 343.844 27.6133 342.484 28.2C341.151 28.76 340.031 28.7467 339.124 28.16ZM341.324 24.84C341.511 24.8667 341.804 24.7733 342.204 24.56C342.604 24.32 343.137 23.9333 343.804 23.4C344.711 22.6267 345.457 21.9867 346.044 21.48C346.631 20.9733 347.204 20.32 347.764 19.52L348.644 18.08C348.377 17.4667 348.137 17.0667 347.924 16.88C347.711 16.6933 347.497 16.6 347.284 16.6C346.937 16.6 346.524 16.8267 346.044 17.28C345.564 17.7067 345.017 18.3467 344.404 19.2C343.817 20.0267 343.151 21.0667 342.404 22.32C342.057 22.9067 341.791 23.48 341.604 24.04C341.417 24.5733 341.324 24.84 341.324 24.84ZM358.076 27.48C357.889 27.5067 357.676 27.44 357.436 27.28C357.222 27.0933 357.022 26.9333 356.836 26.8C356.569 26.48 356.382 26.2 356.276 25.96C356.169 25.72 356.116 25.4533 356.116 25.16C356.116 24.8667 356.142 24.52 356.196 24.12C356.329 23.6933 356.489 23.12 356.676 22.4C356.862 21.68 357.089 20.9067 357.356 20.08C357.409 19.76 357.502 19.3867 357.636 18.96C357.796 18.5067 357.956 18.08 358.116 17.68C358.276 17.2533 358.396 16.9333 358.476 16.72C358.662 16.0533 358.849 15.4133 359.036 14.8C359.249 14.1867 359.502 13.48 359.796 12.68C360.089 11.88 360.449 10.8667 360.876 9.64C361.462 8.04 361.902 6.84 362.196 6.04C362.489 5.24 362.702 4.66667 362.836 4.32C362.969 3.97333 363.062 3.69333 363.116 3.48C363.116 3.26667 363.262 3.06667 363.556 2.88C363.876 2.66667 364.156 2.56 364.396 2.56C364.769 2.58667 365.129 2.81333 365.476 3.24C365.822 3.64 366.062 4.13333 366.196 4.72C366.329 5.28 366.236 5.82667 365.916 6.36C365.489 7.32 365.062 8.4 364.636 9.6C364.236 10.7733 363.836 11.9467 363.436 13.12C363.036 14.2933 362.636 15.3733 362.236 16.36C362.209 16.4933 362.116 16.72 361.956 17.04C361.822 17.36 361.702 17.6267 361.596 17.84C361.489 18.0533 361.382 18.2533 361.276 18.44C361.196 18.6267 361.156 18.72 361.156 18.72C361.129 18.88 361.076 19.1067 360.996 19.4C360.916 19.6933 360.836 19.9467 360.756 20.16C360.729 20.2933 360.689 20.4667 360.636 20.68C360.582 20.8933 360.542 21.1067 360.516 21.32C360.649 21.16 360.836 20.9733 361.076 20.76C361.316 20.52 361.622 20.2267 361.996 19.88C362.422 19.5067 362.796 19.1867 363.116 18.92C363.436 18.6533 363.756 18.4133 364.076 18.2C364.369 17.9867 364.636 17.7867 364.876 17.6C365.142 17.4133 365.276 17.32 365.276 17.32C365.329 17.24 365.382 17.1467 365.436 17.04C365.516 16.9333 365.596 16.8667 365.676 16.84C365.729 16.7867 365.822 16.72 365.956 16.64C366.089 16.5333 366.222 16.4267 366.356 16.32C366.596 16.16 366.849 16.0267 367.116 15.92C367.382 15.8133 367.662 15.7333 367.956 15.68C368.249 15.6267 368.529 15.6 368.796 15.6C369.116 15.6 369.449 15.7333 369.796 16C370.142 16.24 370.462 16.5867 370.756 17.04C371.022 17.3867 371.182 17.8 371.236 18.28C371.316 18.7333 371.329 19.3467 371.276 20.12C371.276 20.3333 371.209 20.7333 371.076 21.32C370.969 21.9067 370.889 22.3467 370.836 22.64L370.476 24H370.796C371.089 23.8933 371.369 23.88 371.636 23.96C371.929 24.04 372.076 24.08 372.076 24.08C372.209 24.16 372.329 24.2533 372.436 24.36C372.569 24.4667 372.689 24.5467 372.796 24.6C372.956 24.8133 372.929 25.12 372.716 25.52C372.502 25.92 372.262 26.2 371.996 26.36C371.356 26.7867 370.782 27.0533 370.276 27.16C369.796 27.2667 369.289 27.1733 368.756 26.88C368.249 26.5333 367.902 26.12 367.716 25.64C367.556 25.16 367.489 24.5067 367.516 23.68C367.622 22.5067 367.689 21.6667 367.716 21.16C367.742 20.6267 367.609 20.36 367.316 20.36C366.996 20.36 366.556 20.52 365.996 20.84C365.462 21.1333 364.862 21.5467 364.196 22.08C363.529 22.5867 362.862 23.16 362.196 23.8C361.556 24.4133 360.982 25.04 360.476 25.68C360.156 26.08 359.809 26.48 359.436 26.88C359.062 27.2533 358.609 27.4533 358.076 27.48ZM379.482 28.44C379.269 28.4933 378.989 28.52 378.642 28.52C378.295 28.4933 377.989 28.4533 377.722 28.4C377.482 28.32 377.362 28.24 377.362 28.16C377.362 28.0267 377.295 27.96 377.162 27.96C377.162 27.96 377.015 27.8533 376.722 27.64C376.429 27.4 376.162 27.2267 375.922 27.12C375.682 26.7467 375.522 26.32 375.442 25.84C375.389 25.3333 375.549 24.4533 375.922 23.2C375.949 22.3467 376.189 21.4533 376.642 20.52C377.095 19.56 377.669 18.6267 378.362 17.72C379.055 16.8133 379.775 16.0133 380.522 15.32C381.269 14.6 381.935 14.0667 382.522 13.72C382.895 13.3467 383.389 13.1467 384.002 13.12C384.642 13.0933 385.202 13.2133 385.682 13.48C385.949 13.6133 386.242 13.88 386.562 14.28C386.882 14.68 387.189 15.1067 387.482 15.56C387.775 15.9867 388.002 16.3733 388.162 16.72C388.242 17.0133 388.309 17.28 388.362 17.52C388.442 17.7333 388.495 18 388.522 18.32C388.549 18.64 388.522 19.12 388.442 19.76C388.309 20.24 388.189 20.7333 388.082 21.24C388.002 21.72 387.962 22.2133 387.962 22.72C387.909 23.2267 387.962 23.5867 388.122 23.8C388.309 24.0133 388.575 24.0267 388.922 23.84C389.242 23.68 389.575 23.6667 389.922 23.8C390.269 23.9067 390.509 24.12 390.642 24.44C390.802 24.7333 390.762 25.12 390.522 25.6C390.362 25.9467 390.109 26.28 389.762 26.6C389.415 26.92 389.029 27.1867 388.602 27.4C388.175 27.5867 387.762 27.68 387.362 27.68C387.069 27.68 386.775 27.5733 386.482 27.36C386.189 27.12 385.922 26.8 385.682 26.4C385.442 26 385.242 25.56 385.082 25.08L384.842 24.16L383.402 25.48C383.055 25.8533 382.709 26.2 382.362 26.52C382.042 26.8133 381.842 27.0267 381.762 27.16C381.629 27.4 381.362 27.6133 380.962 27.8C380.589 27.9867 380.095 28.2 379.482 28.44ZM380.562 24.6C381.015 24.3333 381.402 24.0133 381.722 23.64C382.069 23.2667 382.402 22.8533 382.722 22.4C383.042 21.92 383.389 21.4133 383.762 20.88C384.215 20.2667 384.535 19.7733 384.722 19.4C384.935 19.0267 385.095 18.6267 385.202 18.2C385.095 17.9067 384.949 17.6 384.762 17.28C384.575 16.9333 384.389 16.7467 384.202 16.72C383.829 16.72 383.375 16.9467 382.842 17.4C382.335 17.8533 381.775 18.5067 381.162 19.36C381.055 19.4933 380.922 19.7067 380.762 20C380.602 20.2933 380.442 20.5733 380.282 20.84C380.149 21.08 380.055 21.24 380.002 21.32C379.922 21.4267 379.802 21.68 379.642 22.08C379.509 22.4533 379.389 22.84 379.282 23.24C379.175 23.6133 379.122 23.88 379.122 24.04C379.122 24.2 379.135 24.3733 379.162 24.56C379.215 24.7467 379.349 24.8667 379.562 24.92C379.775 24.9733 380.109 24.8667 380.562 24.6ZM396.628 28.44C396.281 28.52 395.828 28.4667 395.268 28.28C394.708 28.0667 394.161 27.8133 393.628 27.52C393.121 27.2 392.775 26.9467 392.588 26.76C392.401 26.5467 392.348 26.36 392.428 26.2C392.508 26.0133 392.641 25.92 392.828 25.92C392.935 25.92 393.108 25.8133 393.348 25.6C393.588 25.36 393.735 24.9333 393.788 24.32C393.841 23.9467 393.908 23.6267 393.988 23.36C394.095 23.0667 394.148 22.8667 394.148 22.76C394.175 22.68 394.201 22.4667 394.228 22.12C394.281 21.7467 394.361 21.4267 394.468 21.16C394.575 20.68 394.735 20.0667 394.948 19.32C395.161 18.5467 395.375 17.8 395.588 17.08C395.828 16.3333 396.015 15.76 396.148 15.36C396.201 15.0667 396.321 14.6933 396.508 14.24C396.695 13.7867 396.855 13.4267 396.988 13.16C397.255 12.4133 397.615 11.5067 398.068 10.44C398.548 9.37333 399.041 8.30667 399.548 7.24C400.055 6.14667 400.495 5.22667 400.868 4.48C401.268 3.70667 401.521 3.24 401.628 3.08C401.841 2.86667 402.188 2.78667 402.668 2.84C403.148 2.89333 403.535 3.06667 403.828 3.36C404.068 3.65333 404.295 3.96 404.508 4.28C404.721 4.6 404.668 4.94667 404.348 5.32C404.241 5.50667 404.068 5.8 403.828 6.2C403.588 6.57333 403.401 6.85333 403.268 7.04C403.055 7.68 402.788 8.30667 402.468 8.92C402.175 9.53333 401.855 10.2267 401.508 11C401.161 11.7467 400.788 12.68 400.388 13.8C400.148 14.3067 399.948 14.8133 399.788 15.32C399.628 15.8 399.495 16.1067 399.388 16.24C399.228 16.8267 399.055 17.2667 398.868 17.56C398.708 17.8533 398.575 18.32 398.468 18.96C398.468 18.96 398.601 18.8267 398.868 18.56C399.161 18.2933 399.508 17.96 399.908 17.56C400.948 16.44 401.881 15.5867 402.708 15C403.535 14.4133 404.295 14.1067 404.988 14.08C405.361 14.0533 405.761 14.1467 406.188 14.36C406.641 14.5733 407.055 14.84 407.428 15.16C407.801 15.4533 408.055 15.7733 408.188 16.12C408.401 16.6 408.508 17.2267 408.508 18C408.508 18.7467 408.388 19.52 408.148 20.32C407.935 21.12 407.588 21.8267 407.108 22.44C406.815 22.9467 406.455 23.44 406.028 23.92C405.628 24.3733 405.281 24.7067 404.988 24.92C404.721 25.16 404.455 25.4 404.188 25.64C403.948 25.8533 403.748 26.0267 403.588 26.16C403.241 26.4 402.961 26.5867 402.748 26.72C402.535 26.8267 402.241 26.9467 401.868 27.08C401.308 27.48 400.535 27.7733 399.548 27.96C398.561 28.1467 397.588 28.3067 396.628 28.44ZM397.628 25.4C397.815 25.4 398.148 25.36 398.628 25.28C399.135 25.2 399.601 25 400.028 24.68C401.281 24.04 402.281 23.3333 403.028 22.56C403.801 21.7867 404.348 21.0133 404.668 20.24C404.988 19.4667 405.121 18.7733 405.068 18.16C405.015 17.5467 404.681 17.36 404.068 17.6C403.481 17.8133 402.561 18.5467 401.308 19.8C400.721 20.3333 400.215 20.84 399.788 21.32C399.361 21.8 398.921 22.3067 398.468 22.84C398.281 23.1333 398.095 23.3733 397.908 23.56C397.748 23.72 397.655 23.9067 397.628 24.12C397.441 24.9733 397.441 25.4 397.628 25.4ZM413.462 28.28C413.142 28.36 412.782 28.2667 412.382 28C411.982 27.7333 411.622 27.4 411.302 27C410.982 26.6 410.782 26.24 410.702 25.92C410.595 25.36 410.622 24.68 410.782 23.88C410.968 23.0533 411.275 22.1867 411.702 21.28C412.128 20.3467 412.662 19.44 413.302 18.56C413.942 17.6533 414.662 16.84 415.462 16.12C416.262 15.4 417.128 14.84 418.062 14.44C418.462 14.2267 418.742 14.0933 418.902 14.04C419.062 13.96 419.222 13.96 419.382 14.04C419.542 14.0933 419.822 14.2267 420.222 14.44C420.595 14.5467 420.968 14.68 421.342 14.84C421.742 14.9733 422.088 15.24 422.382 15.64C422.595 16.04 422.755 16.44 422.862 16.84C422.968 17.24 423.062 17.6933 423.142 18.2C423.355 18.8667 423.435 19.3067 423.382 19.52C423.328 19.7067 423.248 19.8533 423.142 19.96C422.928 20.2267 422.875 20.36 422.982 20.36C422.982 20.36 422.968 20.4133 422.942 20.52C422.942 20.6 422.888 20.7333 422.782 20.92C422.595 21.5067 422.448 22.0667 422.342 22.6C422.262 23.1067 422.275 23.56 422.382 23.96C422.595 24.5467 422.875 24.8933 423.222 25C423.595 25.1067 424.075 24.8667 424.662 24.28C424.955 24.0667 425.288 23.9333 425.662 23.88C426.035 23.8 426.222 23.8667 426.222 24.08C426.222 24.08 426.262 24.12 426.342 24.2C426.422 24.2533 426.515 24.28 426.622 24.28C426.755 24.28 426.808 24.4133 426.782 24.68C426.755 24.92 426.702 25.2 426.622 25.52C426.542 25.84 426.435 26.1067 426.302 26.32C425.902 26.72 425.702 26.9867 425.702 27.12C425.702 27.12 425.648 27.1733 425.542 27.28C425.462 27.36 425.315 27.4933 425.102 27.68C424.622 27.9733 424.008 28.12 423.262 28.12C422.542 28.12 421.982 27.9733 421.582 27.68C421.182 27.3867 420.782 27.0267 420.382 26.6C420.008 26.1733 419.768 25.7733 419.662 25.4L419.462 25L418.302 25.76C418.008 26.0533 417.795 26.28 417.662 26.44C417.528 26.5733 417.408 26.6933 417.302 26.8C417.222 26.9067 417.128 27 417.022 27.08C416.942 27.16 416.848 27.2 416.742 27.2C416.635 27.2 416.542 27.2 416.462 27.2C416.382 27.2 416.342 27.2 416.342 27.2C416.342 27.3067 416.155 27.4533 415.782 27.64C415.408 27.8 414.995 27.9467 414.542 28.08C414.088 28.2133 413.728 28.28 413.462 28.28ZM414.302 24.92C414.462 24.92 414.702 24.8267 415.022 24.64C415.368 24.4267 415.742 24.1733 416.142 23.88C416.542 23.5867 416.902 23.2933 417.222 23C417.568 22.7067 417.822 22.4667 417.982 22.28C418.088 22.1733 418.208 22 418.342 21.76C418.502 21.52 418.675 21.3067 418.862 21.12C419.475 20.4267 419.862 19.88 420.022 19.48C420.182 19.0533 420.115 18.6 419.822 18.12C419.715 17.8267 419.582 17.6667 419.422 17.64C419.262 17.6133 418.928 17.7067 418.422 17.92C418.102 18.1067 417.755 18.4133 417.382 18.84C417.008 19.2667 416.622 19.7467 416.222 20.28C415.848 20.8133 415.502 21.36 415.182 21.92C414.862 22.48 414.595 22.9867 414.382 23.44C414.195 23.8933 414.102 24.2533 414.102 24.52C414.102 24.6267 414.128 24.72 414.182 24.8C414.262 24.88 414.302 24.92 414.302 24.92ZM432.079 31.4C430.773 31.3733 429.933 31 429.559 30.28C429.213 29.5867 429.119 28.7067 429.279 27.64C429.439 27.1333 429.533 26.68 429.559 26.28C429.613 25.8533 429.733 25.5867 429.919 25.48C429.919 25.48 429.933 25.44 429.959 25.36C430.013 25.28 429.999 25.2 429.919 25.12C429.919 24.7733 430.039 24.2933 430.279 23.68C430.333 23.52 430.399 23.3333 430.479 23.12C430.586 22.88 430.639 22.76 430.639 22.76C430.506 22.5467 430.506 22.3733 430.639 22.24C430.773 22.1067 430.906 21.9867 431.039 21.88C431.199 21.7467 431.213 21.6 431.079 21.44C431.026 21.3333 431.093 21.0933 431.279 20.72C431.466 20.32 431.679 19.9067 431.919 19.48C432.159 19.0533 432.319 18.72 432.399 18.48C432.399 18.4267 432.466 18.24 432.599 17.92C432.733 17.6 432.893 17.2267 433.079 16.8C433.266 16.3733 433.439 15.9867 433.599 15.64C433.786 15.2933 433.906 15.0667 433.959 14.96C434.226 14.8267 434.119 14.7333 433.639 14.68C433.159 14.6267 432.653 14.6133 432.119 14.64C431.293 14.6133 430.626 14.5733 430.119 14.52C429.639 14.4667 429.239 14.3467 428.919 14.16C428.599 13.7867 428.559 13.3467 428.799 12.84C429.039 12.3067 429.426 12.0267 429.959 12C430.306 11.9733 430.573 11.96 430.759 11.96C430.973 11.96 431.239 11.9467 431.559 11.92C431.906 11.8667 432.439 11.8 433.159 11.72L435.199 11.56L435.319 10.88C435.533 10.5333 435.679 10.3067 435.759 10.2C435.839 10.0933 435.893 9.98667 435.919 9.88C435.946 9.74667 435.986 9.52 436.039 9.2C436.039 9.2 436.159 8.98667 436.399 8.56C436.639 8.10667 436.786 7.64 436.839 7.16C437.159 6.62667 437.439 6.14667 437.679 5.72C437.919 5.26667 438.066 4.98667 438.119 4.88C438.573 4.21333 439.013 3.85333 439.439 3.8C439.893 3.74667 440.319 3.85333 440.719 4.12C440.959 4.25333 441.186 4.42667 441.399 4.64C441.613 4.82666 441.746 5.08 441.799 5.4C441.853 5.69333 441.733 6.08 441.439 6.56C441.386 6.66666 441.306 6.86667 441.199 7.16C441.093 7.42667 441.013 7.65333 440.959 7.84C440.799 8.02667 440.599 8.33333 440.359 8.76C440.146 9.16 439.999 9.57333 439.919 10C439.706 10.4533 439.573 10.7333 439.519 10.84C439.466 10.9467 439.386 11 439.279 11C439.333 11.2667 439.493 11.4 439.759 11.4C440.026 11.3733 440.466 11.3467 441.079 11.32C441.586 11.2667 441.933 11.2133 442.119 11.16C442.333 11.08 442.573 11.1067 442.839 11.24C442.973 11.4267 443.039 11.7067 443.039 12.08C443.066 12.4267 443.026 12.7733 442.919 13.12C442.813 13.44 442.666 13.64 442.479 13.72C442.346 13.72 442.066 13.8 441.639 13.96C441.239 14.0933 440.733 14.1733 440.119 14.2L437.999 14.4L437.319 15.76C437.133 16.1067 436.973 16.4267 436.839 16.72C436.706 16.9867 436.613 17.1467 436.559 17.2C436.559 17.36 436.466 17.6 436.279 17.92C436.119 18.24 435.946 18.5867 435.759 18.96C435.599 19.4133 435.413 19.8267 435.199 20.2C435.013 20.5733 434.919 20.76 434.919 20.76C434.813 20.76 434.759 20.84 434.759 21C434.893 21.32 434.853 21.56 434.639 21.72C434.506 21.8 434.386 21.92 434.279 22.08C434.199 22.2133 434.159 22.28 434.159 22.28C434.266 22.3867 434.279 22.52 434.199 22.68C434.146 22.84 434.066 23.0133 433.959 23.2C433.959 23.4133 433.893 23.72 433.759 24.12C433.653 24.52 433.533 24.8933 433.399 25.24C433.426 25.72 433.453 26.0267 433.479 26.16C433.506 26.2933 433.573 26.3467 433.679 26.32C433.813 26.3467 433.999 26.3467 434.239 26.32C434.479 26.2933 434.653 26.28 434.759 26.28C435.159 26.0933 434.973 27.0267 434.199 29.08C433.773 29.7467 433.346 30.2933 432.919 30.72C432.493 31.1733 432.213 31.4 432.079 31.4ZM454.649 30.84C453.929 30.3067 453.369 29.5467 452.969 28.56C452.596 27.5467 452.422 26.6133 452.449 25.76C452.422 24.1067 452.556 22.4 452.849 20.64C453.169 18.88 453.582 17.24 454.089 15.72C454.436 14.76 454.809 13.7867 455.209 12.8C455.609 11.8133 456.022 10.88 456.449 10C456.876 9.09333 457.289 8.33333 457.689 7.72C458.516 6.30667 459.356 5.17333 460.209 4.32C461.089 3.46666 461.756 2.90666 462.209 2.64C462.956 2.26667 463.849 1.98667 464.889 1.8C465.929 1.58667 466.942 1.58667 467.929 1.8C468.622 1.98667 469.302 2.25333 469.969 2.6C470.662 2.94667 471.262 3.37333 471.769 3.88C472.062 4.14667 472.289 4.42667 472.449 4.72C472.609 5.01333 472.689 5.32 472.689 5.64C472.689 6.04 472.502 6.42667 472.129 6.8C471.756 7.17333 471.342 7.42667 470.889 7.56C470.436 7.69333 470.089 7.61333 469.849 7.32C469.502 6.78666 469.169 6.38667 468.849 6.12C468.529 5.82667 468.196 5.61333 467.849 5.48C467.556 5.29333 467.156 5.2 466.649 5.2C466.169 5.2 465.649 5.29333 465.089 5.48C464.529 5.64 463.996 5.93333 463.489 6.36C463.302 6.52 463.049 6.74667 462.729 7.04C462.436 7.33333 462.116 7.69333 461.769 8.12C461.449 8.52 461.156 8.96 460.889 9.44C460.142 10.6667 459.502 11.92 458.969 13.2C458.462 14.4533 458.009 15.8267 457.609 17.32C457.422 17.9333 457.222 18.6933 457.009 19.6C456.796 20.48 456.596 21.36 456.409 22.24C456.249 23.12 456.142 23.8933 456.089 24.56C456.009 25.4933 456.036 26.2267 456.169 26.76C456.302 27.2933 456.582 27.6533 457.009 27.84C457.436 28 458.036 27.9867 458.809 27.8C459.502 27.64 460.196 27.3733 460.889 27C461.609 26.6 462.302 26.1067 462.969 25.52C463.636 24.9067 464.236 24.1867 464.769 23.36C465.249 22.4533 465.636 21.6267 465.929 20.88C466.249 20.1333 466.409 19.5467 466.409 19.12C466.436 18.6667 466.209 18.4533 465.729 18.48C464.636 18.5067 463.756 18.4667 463.089 18.36C462.449 18.2533 462.009 17.9867 461.769 17.56C461.422 17.48 461.236 17.1867 461.209 16.68C461.209 16.1733 461.462 15.76 461.969 15.44C462.422 15.2 463.049 15.0533 463.849 15C464.649 14.9467 465.462 14.9733 466.289 15.08C467.142 15.16 467.822 15.3467 468.329 15.64C468.916 15.9333 469.316 16.3733 469.529 16.96C469.769 17.52 469.889 18.12 469.889 18.76C469.916 19.4 469.876 20 469.769 20.56C469.529 21.4933 469.196 22.4 468.769 23.28C468.369 24.16 467.822 25.0533 467.129 25.96C466.729 26.52 466.182 27.1067 465.489 27.72C464.796 28.3333 464.062 28.88 463.289 29.36C462.542 29.8667 461.836 30.2667 461.169 30.56C460.102 31.04 458.982 31.3867 457.809 31.6C456.662 31.8133 455.609 31.56 454.649 30.84ZM473.515 28.16C473.408 27.9467 473.168 27.7333 472.795 27.52C472.448 27.3067 472.275 27.1467 472.275 27.04C472.275 26.9333 472.208 26.7733 472.075 26.56C471.968 26.32 471.861 26.1467 471.755 26.04C471.621 25.88 471.661 25.4933 471.875 24.88C472.088 24.24 472.408 23.4667 472.835 22.56C473.261 21.6533 473.728 20.7333 474.235 19.8C474.448 19.5867 474.661 19.3067 474.875 18.96C475.088 18.6133 475.248 18.3867 475.355 18.28C475.355 18.1733 475.395 18.08 475.475 18C475.555 17.8933 475.648 17.84 475.755 17.84L476.075 17.2C476.128 17.0933 476.288 16.88 476.555 16.56C476.848 16.24 477.195 15.8933 477.595 15.52C477.995 15.12 478.395 14.7467 478.795 14.4C479.221 14.0533 479.568 13.8 479.835 13.64C480.395 13.2667 480.968 13.0933 481.555 13.12C482.168 13.1467 482.688 13.3333 483.115 13.68C483.195 13.76 483.368 13.92 483.635 14.16C483.928 14.4 484.248 14.6667 484.595 14.96C484.968 15.2533 485.288 15.52 485.555 15.76L487.035 17.08L486.355 19.08C486.008 20.1467 485.915 21.08 486.075 21.88C486.235 22.68 486.488 23.3733 486.835 23.96C486.968 24.2533 487.141 24.48 487.355 24.64C487.595 24.8 487.901 24.9067 488.275 24.96C488.488 24.9867 488.688 25.0667 488.875 25.2C489.061 25.3333 489.155 25.5467 489.155 25.84C489.155 26.48 489.035 26.9467 488.795 27.24C488.581 27.5067 488.341 27.6667 488.075 27.72C487.195 27.8267 486.355 27.7333 485.555 27.44C484.755 27.1467 484.035 26.3867 483.395 25.16C483.288 25 483.141 24.7067 482.955 24.28C482.795 23.8267 482.701 23.5333 482.675 23.4C482.568 23.5333 482.421 23.7067 482.235 23.92C482.075 24.1067 481.915 24.28 481.755 24.44C479.861 26.36 478.235 27.6133 476.875 28.2C475.541 28.76 474.421 28.7467 473.515 28.16ZM475.715 24.84C475.901 24.8667 476.195 24.7733 476.595 24.56C476.995 24.32 477.528 23.9333 478.195 23.4C479.101 22.6267 479.848 21.9867 480.435 21.48C481.021 20.9733 481.595 20.32 482.155 19.52L483.035 18.08C482.768 17.4667 482.528 17.0667 482.315 16.88C482.101 16.6933 481.888 16.6 481.675 16.6C481.328 16.6 480.915 16.8267 480.435 17.28C479.955 17.7067 479.408 18.3467 478.795 19.2C478.208 20.0267 477.541 21.0667 476.795 22.32C476.448 22.9067 476.181 23.48 475.995 24.04C475.808 24.5733 475.715 24.84 475.715 24.84ZM489.506 37.36C488.92 37.9467 488.16 38.2267 487.226 38.2C486.32 38.2 485.546 37.8667 484.906 37.2C484.293 36.3467 483.88 35.52 483.666 34.72C483.426 33.9467 483.373 33.3067 483.506 32.8C483.64 32.2933 483.92 32.04 484.346 32.04C484.48 32.04 484.68 32.0933 484.946 32.2C485.186 32.3067 485.413 32.44 485.626 32.6C485.84 32.76 485.946 32.9467 485.946 33.16C485.946 33.56 485.986 33.9067 486.066 34.2C486.146 34.4933 486.36 34.6667 486.706 34.72C487 34.8267 487.293 34.7867 487.586 34.6C487.906 34.44 488.213 34.12 488.506 33.64C488.773 33.2933 489.066 32.7467 489.386 32C489.706 31.2533 490.026 30.4667 490.346 29.64C490.666 28.84 490.92 28.1867 491.106 27.68C491.426 26.5867 491.68 25.48 491.866 24.36C492.053 23.2133 492.28 21.9867 492.546 20.68C492.653 19.96 492.773 19.3467 492.906 18.84C493.066 18.3067 493.146 17.9867 493.146 17.88C493.146 17.7733 493.16 17.56 493.186 17.24C493.213 16.8933 493.293 16.5867 493.426 16.32C493.426 15.92 493.48 15.4667 493.586 14.96C493.72 14.4533 493.786 14.1467 493.786 14.04C493.866 13.96 494.026 13.96 494.266 14.04C494.533 14.0933 494.8 14.1867 495.066 14.32C495.36 14.4533 495.573 14.5867 495.706 14.72C495.92 14.9333 496.106 15.1733 496.266 15.44C496.426 15.68 496.533 16.08 496.586 16.64C496.666 17.1733 496.64 18 496.506 19.12C496.506 19.28 496.466 19.6133 496.386 20.12C496.306 20.6 496.2 21.1467 496.066 21.76C495.933 22.3733 495.8 22.9733 495.666 23.56C495.533 24.12 495.426 24.5867 495.346 24.96C495.24 25.36 495.12 25.8 494.986 26.28C494.853 26.76 494.773 27.0933 494.746 27.28C494.72 27.44 494.626 27.76 494.466 28.24C494.306 28.6933 494.133 29.1467 493.946 29.6C493.786 30.0533 493.693 30.3733 493.666 30.56C493.64 30.6667 493.56 30.92 493.426 31.32C493.32 31.72 493.08 32.3333 492.706 33.16C492.573 33.48 492.293 33.9333 491.866 34.52C491.44 35.1333 491 35.7067 490.546 36.24C490.093 36.8 489.746 37.1733 489.506 37.36ZM495.426 9.96C495.133 9.61333 495.04 9.05333 495.146 8.28C495.28 7.50667 495.56 6.84 495.986 6.28C496.333 5.88 496.8 5.65333 497.386 5.6C498 5.54667 498.48 5.66667 498.826 5.96C499.12 6.41333 499.306 6.86667 499.386 7.32C499.466 7.77333 499.36 8.21333 499.066 8.64C498.4 9.38667 497.706 9.86667 496.986 10.08C496.293 10.2933 495.773 10.2533 495.426 9.96ZM503.482 28.44C503.269 28.4933 502.989 28.52 502.642 28.52C502.295 28.4933 501.989 28.4533 501.722 28.4C501.482 28.32 501.362 28.24 501.362 28.16C501.362 28.0267 501.295 27.96 501.162 27.96C501.162 27.96 501.015 27.8533 500.722 27.64C500.429 27.4 500.162 27.2267 499.922 27.12C499.682 26.7467 499.522 26.32 499.442 25.84C499.389 25.3333 499.549 24.4533 499.922 23.2C499.949 22.3467 500.189 21.4533 500.642 20.52C501.095 19.56 501.669 18.6267 502.362 17.72C503.055 16.8133 503.775 16.0133 504.522 15.32C505.269 14.6 505.935 14.0667 506.522 13.72C506.895 13.3467 507.389 13.1467 508.002 13.12C508.642 13.0933 509.202 13.2133 509.682 13.48C509.949 13.6133 510.242 13.88 510.562 14.28C510.882 14.68 511.189 15.1067 511.482 15.56C511.775 15.9867 512.002 16.3733 512.162 16.72C512.242 17.0133 512.309 17.28 512.362 17.52C512.442 17.7333 512.495 18 512.522 18.32C512.549 18.64 512.522 19.12 512.442 19.76C512.309 20.24 512.189 20.7333 512.082 21.24C512.002 21.72 511.962 22.2133 511.962 22.72C511.909 23.2267 511.962 23.5867 512.122 23.8C512.309 24.0133 512.575 24.0267 512.922 23.84C513.242 23.68 513.575 23.6667 513.922 23.8C514.269 23.9067 514.509 24.12 514.642 24.44C514.802 24.7333 514.762 25.12 514.522 25.6C514.362 25.9467 514.109 26.28 513.762 26.6C513.415 26.92 513.029 27.1867 512.602 27.4C512.175 27.5867 511.762 27.68 511.362 27.68C511.069 27.68 510.775 27.5733 510.482 27.36C510.189 27.12 509.922 26.8 509.682 26.4C509.442 26 509.242 25.56 509.082 25.08L508.842 24.16L507.402 25.48C507.055 25.8533 506.709 26.2 506.362 26.52C506.042 26.8133 505.842 27.0267 505.762 27.16C505.629 27.4 505.362 27.6133 504.962 27.8C504.589 27.9867 504.095 28.2 503.482 28.44ZM504.562 24.6C505.015 24.3333 505.402 24.0133 505.722 23.64C506.069 23.2667 506.402 22.8533 506.722 22.4C507.042 21.92 507.389 21.4133 507.762 20.88C508.215 20.2667 508.535 19.7733 508.722 19.4C508.935 19.0267 509.095 18.6267 509.202 18.2C509.095 17.9067 508.949 17.6 508.762 17.28C508.575 16.9333 508.389 16.7467 508.202 16.72C507.829 16.72 507.375 16.9467 506.842 17.4C506.335 17.8533 505.775 18.5067 505.162 19.36C505.055 19.4933 504.922 19.7067 504.762 20C504.602 20.2933 504.442 20.5733 504.282 20.84C504.149 21.08 504.055 21.24 504.002 21.32C503.922 21.4267 503.802 21.68 503.642 22.08C503.509 22.4533 503.389 22.84 503.282 23.24C503.175 23.6133 503.122 23.88 503.122 24.04C503.122 24.2 503.135 24.3733 503.162 24.56C503.215 24.7467 503.349 24.8667 503.562 24.92C503.775 24.9733 504.109 24.8667 504.562 24.6ZM529.668 28.36C529.001 28.68 528.348 28.8 527.708 28.72C527.095 28.6133 526.575 28.28 526.148 27.72C525.748 27.1333 525.548 26.28 525.548 25.16C525.548 24.8667 525.561 24.52 525.588 24.12C525.641 23.6933 525.721 23.2533 525.828 22.8C525.935 22.32 526.068 21.84 526.228 21.36C526.308 21.12 526.415 20.88 526.548 20.64C526.708 20.4 526.735 20.28 526.628 20.28C526.521 20.28 526.388 20.3467 526.228 20.48C526.095 20.6133 525.988 20.72 525.908 20.8C525.241 21.3867 524.628 22 524.068 22.64C523.535 23.2533 523.055 23.8667 522.628 24.48C522.228 25.0667 521.908 25.6133 521.668 26.12C521.455 26.6267 521.348 27.0533 521.348 27.4C521.348 27.8 521.148 28.08 520.748 28.24C520.348 28.4 520.001 28.3867 519.708 28.2C519.201 27.9067 518.735 27.4533 518.308 26.84C517.908 26.2267 517.748 25.4267 517.828 24.44C517.908 23.1867 518.015 22.0667 518.148 21.08C518.281 20.0933 518.495 19.0267 518.788 17.88C519.108 16.7067 519.521 15.28 520.028 13.6C520.375 12.6667 520.695 11.7867 520.988 10.96C521.281 10.1067 521.535 9.38667 521.748 8.8C521.988 8.21333 522.135 7.85333 522.188 7.72C522.321 7.58667 522.495 7.26667 522.708 6.76C522.921 6.22667 523.108 5.69333 523.268 5.16C523.455 4.62666 523.548 4.30667 523.548 4.2C523.548 3.98667 523.588 3.8 523.668 3.64C523.775 3.48 523.868 3.33333 523.948 3.2C524.108 2.82667 524.241 2.57333 524.348 2.44C524.481 2.28 524.601 2.2 524.708 2.2C524.841 2.2 525.055 2.26667 525.348 2.4C525.668 2.53333 525.961 2.70667 526.228 2.92C526.521 3.10667 526.695 3.30667 526.748 3.52C526.935 3.89333 527.041 4.28 527.068 4.68C527.095 5.05333 527.001 5.52 526.788 6.08C526.575 6.64 526.201 7.41333 525.668 8.4C525.241 9.22667 524.855 10.08 524.508 10.96C524.161 11.84 523.828 12.76 523.508 13.72C523.375 14.12 523.201 14.6533 522.988 15.32C522.775 15.96 522.561 16.6267 522.348 17.32C522.161 17.9867 522.001 18.5867 521.868 19.12C521.735 19.6533 521.668 20 521.668 20.16C521.668 20.3467 521.775 20.44 521.988 20.44C522.201 20.4133 522.415 20.2533 522.628 19.96C522.735 19.7467 522.908 19.5467 523.148 19.36C523.388 19.1467 523.601 18.9333 523.788 18.72C524.001 18.4533 524.255 18.1467 524.548 17.8C524.868 17.4267 525.201 17.08 525.548 16.76C525.921 16.4133 526.255 16.1333 526.548 15.92C526.868 15.7067 527.135 15.6 527.348 15.6C527.855 15.6 528.281 15.7467 528.628 16.04C528.975 16.3333 529.268 16.7867 529.508 17.4C529.588 17.48 529.668 17.5867 529.748 17.72C529.828 17.8267 529.881 17.9067 529.908 17.96C530.041 18.0667 530.108 18.4933 530.108 19.24C530.108 19.96 529.895 20.96 529.468 22.24C529.228 23.2267 529.081 23.96 529.028 24.44C529.001 24.92 529.095 25.16 529.308 25.16C529.308 25.16 529.441 25.08 529.708 24.92C530.001 24.76 530.308 24.5867 530.628 24.4C531.401 23.8933 531.961 23.7333 532.308 23.92C532.655 24.1067 532.828 24.3467 532.828 24.64C532.828 24.88 532.735 25.16 532.548 25.48C532.388 25.8 532.308 26.0133 532.308 26.12C532.308 26.12 532.308 26.1333 532.308 26.16C532.308 26.16 532.308 26.2133 532.308 26.32C532.308 26.3733 532.135 26.56 531.788 26.88C531.441 27.2 531.055 27.52 530.628 27.84C530.228 28.1333 529.908 28.3067 529.668 28.36Z" fill="#276561"/>
</svg>
