<svg width="23" height="22" viewBox="0 0 23 22" fill="none" xmlns="http://www.w3.org/2000/svg">
<path d="M15.6292 6.125C15.6292 6.01328 15.5342 5.92188 15.4182 5.92188H13.9812C13.9021 5.92188 13.8283 5.96504 13.794 6.03359L11.5607 10.3195H11.4737L9.2404 6.03359C9.22291 6.00017 9.19617 5.97205 9.16314 5.95234C9.1301 5.93262 9.09206 5.92208 9.05319 5.92188H7.58454C7.55026 5.92188 7.51599 5.92949 7.48434 5.94727C7.38151 6.00059 7.3446 6.125 7.39997 6.22148L10.1395 11.0863H8.63659C8.52057 11.0863 8.42565 11.1777 8.42565 11.2895V11.9775C8.42565 12.0893 8.52057 12.1807 8.63659 12.1807H10.6405V13.1709H8.63659C8.52057 13.1709 8.42565 13.2623 8.42565 13.374V14.0621C8.42565 14.1738 8.52057 14.2652 8.63659 14.2652H10.6405V15.875C10.6405 15.9867 10.7354 16.0781 10.8514 16.0781H12.1672C12.2832 16.0781 12.3781 15.9867 12.3781 15.875V14.2627H14.3899C14.5059 14.2627 14.6008 14.1713 14.6008 14.0596V13.3715C14.6008 13.2598 14.5059 13.1684 14.3899 13.1684H12.3781V12.1781H14.3899C14.5059 12.1781 14.6008 12.0867 14.6008 11.975V11.2869C14.6008 11.1752 14.5059 11.0838 14.3899 11.0838H12.8712L15.6054 6.21895C15.6186 6.19102 15.6292 6.15801 15.6292 6.125ZM2.16344 10.802C2.21297 8.48787 3.191 6.28213 4.89245 4.64727C5.74938 3.82207 6.74606 3.17207 7.85612 2.72012C9.00573 2.25293 10.2265 2.01426 11.4842 2.01426C12.7446 2.01426 13.9654 2.25039 15.1124 2.72012C16.2224 3.17207 17.2191 3.82207 18.076 4.64727C18.3397 4.90117 18.5849 5.16777 18.8117 5.44453L17.4933 6.4373C17.4619 6.4607 17.438 6.49216 17.4243 6.52806C17.4107 6.56396 17.4078 6.60284 17.4161 6.64024C17.4243 6.67764 17.4434 6.71203 17.4711 6.73947C17.4987 6.7669 17.5339 6.78626 17.5724 6.79531L21.7068 7.76777C21.8386 7.79824 21.9678 7.70176 21.9678 7.57227L21.9889 3.47168C21.9889 3.30156 21.7859 3.20508 21.6488 3.31172L20.3884 4.26133C18.3213 1.71465 15.1018 0.0820312 11.4869 0.0820312C5.30378 0.0820312 0.275554 4.85801 0.162175 10.7918C0.161472 10.8189 0.166408 10.8459 0.176693 10.8711C0.186978 10.8963 0.202404 10.9193 0.222062 10.9387C0.241719 10.9581 0.265212 10.9735 0.291154 10.9841C0.317096 10.9946 0.344963 11 0.373113 11H1.95514C2.06852 11 2.16081 10.9111 2.16344 10.802ZM22.627 11H21.045C20.9316 11 20.8367 11.0889 20.8341 11.198C20.7845 13.5121 19.8065 15.7179 18.105 17.3527C17.256 18.1738 16.2495 18.8283 15.1414 19.2799C13.9918 19.7471 12.771 19.9857 11.5133 19.9857C10.2555 19.9857 9.0321 19.7496 7.88513 19.2799C6.77703 18.8283 5.77052 18.1738 4.92145 17.3527C4.65778 17.0988 4.41257 16.8322 4.18581 16.5555L5.50153 15.5627C5.53294 15.5393 5.55685 15.5078 5.57052 15.4719C5.58418 15.436 5.58705 15.3972 5.57878 15.3598C5.57052 15.3224 5.55146 15.288 5.5238 15.2605C5.49614 15.2331 5.46101 15.2137 5.42243 15.2047L1.28805 14.2322C1.15622 14.2018 1.02702 14.2982 1.02702 14.4277L1.00593 18.5334C1.00593 18.7035 1.20895 18.8 1.34606 18.6934L2.60641 17.7437C4.67887 20.2854 7.89831 21.918 11.5133 21.918C17.6964 21.918 22.7246 17.142 22.838 11.2082C22.8387 11.1811 22.8337 11.1541 22.8234 11.1289C22.8132 11.1037 22.7977 11.0807 22.7781 11.0613C22.7584 11.0419 22.7349 11.0265 22.709 11.0159C22.683 11.0054 22.6552 11 22.627 11Z" fill="black"/>
</svg>
