<svg width="23" height="22" viewBox="0 0 23 22" fill="none" xmlns="http://www.w3.org/2000/svg">
<path d="M15.6291 6.125C15.6291 6.01328 15.5342 5.92188 15.4182 5.92188H13.9811C13.902 5.92188 13.8282 5.96504 13.7939 6.03359L11.5606 10.3195H11.4736L9.24033 6.03359C9.22284 6.00017 9.19611 5.97205 9.16307 5.95234C9.13004 5.93262 9.09199 5.92208 9.05312 5.92188H7.58447C7.55019 5.92188 7.51592 5.92949 7.48428 5.94727C7.38144 6.00059 7.34453 6.125 7.3999 6.22148L10.1395 11.0863H8.63652C8.52051 11.0863 8.42558 11.1777 8.42558 11.2895V11.9775C8.42558 12.0893 8.52051 12.1807 8.63652 12.1807H10.6404V13.1709H8.63652C8.52051 13.1709 8.42558 13.2623 8.42558 13.374V14.0621C8.42558 14.1738 8.52051 14.2652 8.63652 14.2652H10.6404V15.875C10.6404 15.9867 10.7353 16.0781 10.8514 16.0781H12.1671C12.2831 16.0781 12.378 15.9867 12.378 15.875V14.2627H14.3898C14.5059 14.2627 14.6008 14.1713 14.6008 14.0596V13.3715C14.6008 13.2598 14.5059 13.1684 14.3898 13.1684H12.378V12.1781H14.3898C14.5059 12.1781 14.6008 12.0867 14.6008 11.975V11.2869C14.6008 11.1752 14.5059 11.0838 14.3898 11.0838H12.8711L15.6054 6.21895C15.6186 6.19102 15.6291 6.15801 15.6291 6.125ZM2.16338 10.802C2.2129 8.48787 3.19094 6.28213 4.89238 4.64727C5.74931 3.82207 6.74599 3.17207 7.85605 2.72012C9.00566 2.25293 10.2265 2.01426 11.4842 2.01426C12.7445 2.01426 13.9653 2.25039 15.1123 2.72012C16.2224 3.17207 17.219 3.82207 18.076 4.64727C18.3396 4.90117 18.5849 5.16777 18.8116 5.44453L17.4933 6.4373C17.4619 6.4607 17.4379 6.49216 17.4243 6.52806C17.4106 6.56396 17.4077 6.60284 17.416 6.64024C17.4243 6.67764 17.4433 6.71203 17.471 6.73947C17.4986 6.7669 17.5338 6.78626 17.5724 6.79531L21.7067 7.76777C21.8386 7.79824 21.9678 7.70176 21.9678 7.57227L21.9889 3.47168C21.9889 3.30156 21.7858 3.20508 21.6487 3.31172L20.3884 4.26133C18.3212 1.71465 15.1018 0.0820312 11.4868 0.0820312C5.30371 0.0820312 0.275486 4.85801 0.162107 10.7918C0.161403 10.8189 0.166339 10.8459 0.176624 10.8711C0.186909 10.8963 0.202335 10.9193 0.221993 10.9387C0.241651 10.9581 0.265143 10.9735 0.291085 10.9841C0.317027 10.9946 0.344894 11 0.373044 11H1.95508C2.06845 11 2.16074 10.9111 2.16338 10.802ZM22.627 11H21.0449C20.9315 11 20.8366 11.0889 20.834 11.198C20.7845 13.5121 19.8064 15.7179 18.105 17.3527C17.2559 18.1738 16.2494 18.8283 15.1413 19.2799C13.9917 19.7471 12.7709 19.9857 11.5132 19.9857C10.2555 19.9857 9.03203 19.7496 7.88506 19.2799C6.77696 18.8283 5.77045 18.1738 4.92138 17.3527C4.65771 17.0988 4.4125 16.8322 4.18574 16.5555L5.50146 15.5627C5.53287 15.5393 5.55678 15.5078 5.57045 15.4719C5.58411 15.436 5.58698 15.3972 5.57872 15.3598C5.57045 15.3224 5.55139 15.288 5.52374 15.2605C5.49608 15.2331 5.46094 15.2137 5.42236 15.2047L1.28799 14.2322C1.15615 14.2018 1.02695 14.2982 1.02695 14.4277L1.00586 18.5334C1.00586 18.7035 1.20888 18.8 1.34599 18.6934L2.60635 17.7437C4.67881 20.2854 7.89824 21.918 11.5132 21.918C17.6963 21.918 22.7245 17.142 22.8379 11.2082C22.8386 11.1811 22.8337 11.1541 22.8234 11.1289C22.8131 11.1037 22.7977 11.0807 22.778 11.0613C22.7583 11.0419 22.7349 11.0265 22.7089 11.0159C22.683 11.0054 22.6551 11 22.627 11Z" fill="black"/>
</svg>
