<svg width="27" height="28" viewBox="0 0 27 28" fill="none" xmlns="http://www.w3.org/2000/svg">
<path d="M23.625 5.39062H3.375C3.07663 5.39062 2.79048 5.50915 2.5795 5.72013C2.36853 5.93111 2.25 6.21726 2.25 6.51562V22.2656C2.25 22.564 2.36853 22.8501 2.5795 23.0611C2.79048 23.2721 3.07663 23.3906 3.375 23.3906H23.625C23.9234 23.3906 24.2095 23.2721 24.4205 23.0611C24.6315 22.8501 24.75 22.564 24.75 22.2656V6.51562C24.75 6.21726 24.6315 5.93111 24.4205 5.72013C24.2095 5.50915 23.9234 5.39063 23.625 5.39062ZM22.5 17.7656C21.6049 17.7656 20.7464 18.1212 20.1135 18.7541C19.4806 19.3871 19.125 20.2455 19.125 21.1406H7.875C7.875 20.2455 7.51942 19.3871 6.88649 18.7541C6.25355 18.1212 5.39511 17.7656 4.5 17.7656V11.0156C5.39511 11.0156 6.25355 10.66 6.88649 10.0271C7.51942 9.39418 7.875 8.53573 7.875 7.64062H19.125C19.125 8.53573 19.4806 9.39418 20.1135 10.0271C20.7464 10.66 21.6049 11.0156 22.5 11.0156V17.7656Z" fill="black"/>
<path d="M13.5 9.89062C11.0182 9.89062 9 11.9089 9 14.3906C9 16.8724 11.0182 18.8906 13.5 18.8906C15.9818 18.8906 18 16.8724 18 14.3906C18 11.9089 15.9818 9.89062 13.5 9.89062ZM13.5 16.6406C12.2591 16.6406 11.25 15.6315 11.25 14.3906C11.25 13.1497 12.2591 12.1406 13.5 12.1406C14.7409 12.1406 15.75 13.1497 15.75 14.3906C15.75 15.6315 14.7409 16.6406 13.5 16.6406Z" fill="black"/>
</svg>
