<svg width="27" height="28" viewBox="0 0 27 28" fill="none" xmlns="http://www.w3.org/2000/svg">
<path fill-rule="evenodd" clip-rule="evenodd" d="M22.2387 17.6953C22.4071 17.3983 22.6799 17.1782 23.0015 17.0801C23.3231 16.982 23.6692 17.0132 23.9691 17.1673C24.269 17.3214 24.5001 17.5868 24.6152 17.9094C24.7303 18.2319 24.7207 18.5872 24.5885 18.9028L24.52 19.043L24.0787 19.8247C24.342 20.1405 24.5561 20.496 24.7136 20.8786L24.8005 21.1063H25.6843C26.02 21.1067 26.3429 21.2382 26.587 21.4741C26.8312 21.7099 26.9781 22.0321 26.9977 22.3751C27.0174 22.718 26.9084 23.0556 26.6929 23.3191C26.4774 23.5825 26.1718 23.7518 25.8384 23.7923L25.6843 23.8018H24.8005C24.6716 24.1756 24.4896 24.5279 24.2605 24.8476L24.0787 25.0821L24.52 25.8651C24.6893 26.1629 24.7408 26.5158 24.6637 26.8512C24.5867 27.1867 24.387 27.4792 24.1057 27.6686C23.8244 27.8581 23.4829 27.9301 23.1514 27.8699C22.8198 27.8097 22.5234 27.6218 22.323 27.3449L22.2387 27.2128L21.7974 26.4312C21.4115 26.5039 21.0203 26.5161 20.6383 26.4716L20.3525 26.4285L19.91 27.2128C19.7415 27.5098 19.4687 27.7299 19.1471 27.828C18.8255 27.9261 18.4794 27.8949 18.1795 27.7408C17.8796 27.5867 17.6486 27.3213 17.5334 26.9987C17.4183 26.6762 17.4279 26.3209 17.5602 26.0053L17.6287 25.8651L18.0699 25.0821C17.8069 24.767 17.5928 24.4125 17.435 24.0309L17.3481 23.8018H16.4643C16.1286 23.8014 15.8057 23.6698 15.5616 23.434C15.3175 23.1982 15.1706 22.8759 15.1509 22.533C15.1312 22.1901 15.2402 21.8525 15.4557 21.589C15.6712 21.3256 15.9768 21.1563 16.3102 21.1158L16.4643 21.1063H17.3494C17.4784 20.7325 17.6603 20.3801 17.8895 20.0605L18.0699 19.826L17.6287 19.043C17.4593 18.7452 17.4079 18.3923 17.4849 18.0569C17.5619 17.7214 17.7616 17.4289 18.0429 17.2395C18.3242 17.05 18.6657 16.978 18.9973 17.0382C19.3288 17.0984 19.6253 17.2863 19.8257 17.5632L19.91 17.6953L20.3512 18.4769C20.7371 18.4042 21.1283 18.392 21.5103 18.4365L21.7961 18.4783L22.2387 17.6953ZM11.8543 15.7155C12.4435 15.7155 13.0213 15.7469 13.5877 15.8098C13.9351 15.8475 14.2536 16.0249 14.4732 16.3029C14.6928 16.5809 14.7955 16.9368 14.7586 17.2923C14.7217 17.6478 14.5484 17.9737 14.2767 18.1984C14.005 18.4231 13.6572 18.5281 13.3097 18.4904C12.8347 18.4374 12.3495 18.4109 11.8543 18.4109C9.18972 18.4109 6.79251 19.2061 5.08945 20.2694C4.23725 20.8004 3.59449 21.3772 3.17959 21.9163C2.75283 22.4689 2.63429 22.8867 2.63429 23.1279C2.63429 23.2923 2.68302 23.4662 2.97016 23.702C3.29813 23.9716 3.86845 24.2505 4.7404 24.4864C6.4764 24.9581 8.97107 25.1495 11.8543 25.1495L12.721 25.1427C13.0703 25.1379 13.4072 25.2753 13.6575 25.5246C13.9079 25.7739 14.0512 26.1148 14.0559 26.4723C14.0606 26.8297 13.9264 27.1744 13.6827 27.4306C13.439 27.6867 13.1059 27.8333 12.7565 27.8382L11.8543 27.8449C8.91838 27.8449 6.14448 27.6562 4.06602 27.0929C3.03207 26.8126 2.0587 26.4109 1.3211 25.8045C0.540029 25.163 0 24.2667 0 23.1279C0 22.0673 0.471538 21.0753 1.11167 20.2451C1.76234 19.4028 2.66195 18.6279 3.71698 17.9675C5.82836 16.6521 8.69974 15.7155 11.8543 15.7155ZM21.0743 21.1063C20.725 21.1063 20.39 21.2483 20.1429 21.5011C19.8959 21.7538 19.7572 22.0966 19.7572 22.454C19.7572 22.8115 19.8959 23.1543 20.1429 23.407C20.39 23.6598 20.725 23.8018 21.0743 23.8018C21.4236 23.8018 21.7587 23.6598 22.0057 23.407C22.2527 23.1543 22.3915 22.8115 22.3915 22.454C22.3915 22.0966 22.2527 21.7538 22.0057 21.5011C21.7587 21.2483 21.4236 21.1063 21.0743 21.1063ZM11.8543 0.890625C13.6009 0.890625 15.276 1.60058 16.5111 2.86431C17.7462 4.12803 18.44 5.84201 18.44 7.62919C18.44 9.41637 17.7462 11.1304 16.5111 12.3941C15.276 13.6578 13.6009 14.3678 11.8543 14.3678C10.1077 14.3678 8.43255 13.6578 7.19749 12.3941C5.96243 11.1304 5.26858 9.41637 5.26858 7.62919C5.26858 5.84201 5.96243 4.12803 7.19749 2.86431C8.43255 1.60058 10.1077 0.890625 11.8543 0.890625ZM11.8543 3.58605C11.3354 3.58605 10.8216 3.69063 10.3422 3.89382C9.86274 4.09701 9.42714 4.39482 9.06021 4.77026C8.69329 5.1457 8.40223 5.59141 8.20365 6.08195C8.00507 6.57249 7.90287 7.09824 7.90287 7.62919C7.90287 8.16015 8.00507 8.6859 8.20365 9.17644C8.40223 9.66697 8.69329 10.1127 9.06021 10.4881C9.42714 10.8636 9.86274 11.1614 10.3422 11.3646C10.8216 11.5678 11.3354 11.6723 11.8543 11.6723C12.9023 11.6723 13.9073 11.2464 14.6484 10.4881C15.3894 9.72989 15.8057 8.7015 15.8057 7.62919C15.8057 6.55689 15.3894 5.5285 14.6484 4.77026C13.9073 4.01203 12.9023 3.58605 11.8543 3.58605Z" fill="black"/>
</svg>
