<svg width="106" height="106" viewBox="0 0 106 106" fill="none" xmlns="http://www.w3.org/2000/svg">
<path d="M70.95 36.7266C70.95 36.2711 70.5773 35.8984 70.1219 35.8984L63.2898 35.9295L53.0004 48.1961L42.7213 35.9398L35.8789 35.9088C35.4234 35.9088 35.0508 36.2711 35.0508 36.7369C35.0508 36.9336 35.1232 37.1199 35.2475 37.2752L48.7148 53.3201L35.2475 69.3547C35.1224 69.5064 35.053 69.6964 35.0508 69.893C35.0508 70.3484 35.4234 70.7211 35.8789 70.7211L42.7213 70.69L53.0004 58.4234L63.2795 70.6797L70.1115 70.7107C70.567 70.7107 70.9396 70.3484 70.9396 69.8826C70.9396 69.6859 70.8672 69.4996 70.743 69.3443L57.2963 53.3098L70.7637 37.2648C70.8879 37.1199 70.95 36.9232 70.95 36.7266Z" fill="white"/>
<path d="M53 6.72852C27.3902 6.72852 6.625 27.4938 6.625 53.1035C6.625 78.7133 27.3902 99.4785 53 99.4785C78.6098 99.4785 99.375 78.7133 99.375 53.1035C99.375 27.4938 78.6098 6.72852 53 6.72852ZM53 91.6113C31.7379 91.6113 14.4922 74.3656 14.4922 53.1035C14.4922 31.8414 31.7379 14.5957 53 14.5957C74.2621 14.5957 91.5078 31.8414 91.5078 53.1035C91.5078 74.3656 74.2621 91.6113 53 91.6113Z" fill="white"/>
</svg>
